<?xml version="1.0" encoding="iso-8859-1"?>
<!-- Generator: Adobe Illustrator 19.0.0, SVG Export Plug-In . SVG Version: 6.00 Build 0)  -->
<svg xmlns="http://www.w3.org/2000/svg" xmlns:xlink="http://www.w3.org/1999/xlink" viewBox="0 0 512.016 512.016" style="enable-background:new 0 0 512.016 512.016;" xml:space="preserve" width="512px" height="512px">
<g>
	<g>
		<path d="M296.48,100.888c-30.128,0-54.624,24.944-54.624,55.584s24.496,55.584,54.624,55.584s54.656-24.944,54.656-55.584    S326.608,100.888,296.48,100.888z M296.48,196.056c-21.296,0-38.624-17.76-38.624-39.584c0-21.824,17.328-39.584,38.624-39.584    c21.312,0,38.656,17.76,38.656,39.584C335.136,178.296,317.792,196.056,296.48,196.056z" fill="#373a3c"/>
	</g>
</g>
<g>
	<g>
		<path d="M400.464,240.424l-5.648-5.648L290.08,338.984L166.112,186.792L0,401.352l12.656,9.776l153.76-198.624l159.888,196.304    l12.4-10.096l-38.496-47.264l94.56-94.08c22.192,22.16,102.4,102.24,105.84,105.728l11.408-11.216    C508.048,347.832,400.464,240.424,400.464,240.424z" fill="#373a3c"/>
	</g>
</svg>
